# xmcd
# 
# Track frame offsets:
#     182
#     11445
#     25070
#     38252
#     51227
#     64670
#     78010
#     96612
#     106915
#     125632
#     146257
#     162477
# 
# Disc length: 2324
# 
# Revision: 1
# Processed by: cddbd v1.5.2PL0 Copyright (c) Steve Scherf et al.
# Submitted via: BonkEnc v1.0
# 
DISCID=9009120c
DTITLE=Various Artist - Best of Dance Party 60s A
DYEAR=0
DGENRE=Pop
TTITLE0=Billy Joe Royal - Hush
TTITLE1=Love Affair - Everlasting Love
TTITLE2=Andy Williams - Hello Dolly
TTITLE3=Fleedwood Mac - Black Magic Woman
TTITLE4=Sly and The Family Stone - Dance To The Music 
TTITLE5=Scott McKenzie - San Francisco
TTITLE6=Blood Sweat and Tears - Spinning Wheel
TTITLE7=The Byrds - Mr Tambourine Man
TTITLE8=Santana - Jingo
TTITLE9=Donovan - Sunshine Superman
TTITLE10=Gary Puckett and The Union Gap - Woman Woman
TTITLE11=Johnny Cash - Ring of Fire
EXTD=
EXTT0=
EXTT1=
EXTT2=
EXTT3=
EXTT4=
EXTT5=
EXTT6=
EXTT7=
EXTT8=
EXTT9=
EXTT10=
EXTT11=
PLAYORDER=
